<?xml version="1.0" encoding="UTF-8"?>
<svg width="752pt" height="752pt" version="1.1" viewBox="0 0 752 752" xmlns="http://www.w3.org/2000/svg">
 <defs>
  <clipPath id="a">
   <path d="m139.21 139.21h473.58v473.58h-473.58z"/>
  </clipPath>
 </defs>
 <g clip-path="url(#a)">
  <path d="m518.07 423.36c-28.414 0-54.461 11.84-71.039 33.152l-120.76-59.199c2.3672-7.1055 4.7344-26.047 0-40.254l120.77-61.566c16.574 21.312 42.621 33.152 71.035 33.152 52.094 0 94.715-42.621 94.715-94.715s-42.621-94.715-94.715-94.715-94.715 42.621-94.715 94.715c0 7.1055 0 14.207 2.3672 18.941l-120.76 61.566c-16.574-21.312-42.621-33.152-71.039-33.152-52.094 0-94.715 42.621-94.715 94.715s42.621 94.715 94.715 94.715c28.414 0 54.461-11.84 71.039-33.152l120.76 59.199c-2.3672 7.1055-2.3672 14.211-2.3672 21.312 0 52.094 42.621 94.715 94.715 94.715s94.715-42.621 94.715-94.715c0.003907-52.094-42.621-94.715-94.715-94.715zm0-236.79c26.047 0 47.359 21.312 47.359 47.359 0 26.047-21.312 47.359-47.359 47.359s-47.359-21.312-47.359-47.359c0.003906-26.051 21.312-47.359 47.359-47.359zm-284.15 236.79c-26.047 0-47.359-21.312-47.359-47.359s21.312-47.359 47.359-47.359 47.359 21.312 47.359 47.359-21.312 47.359-47.359 47.359zm284.15 142.07c-26.047 0-47.359-21.312-47.359-47.359s21.312-47.359 47.359-47.359 47.359 21.312 47.359 47.359-21.312 47.359-47.359 47.359z"/>
 </g>
</svg>
